<svg width="18" height="17" viewBox="0 0 18 17" fill="none" xmlns="http://www.w3.org/2000/svg">
<path d="M3.00098 16.7578C1.16406 16.7578 0.241211 15.8525 0.241211 14.0332V3.30176C0.241211 1.48242 1.16406 0.577148 3.00098 0.577148H15.0068C16.8438 0.577148 17.7578 1.49121 17.7578 3.30176V14.0332C17.7578 15.8438 16.8438 16.7578 15.0068 16.7578H3.00098ZM2.86914 15.3428H15.1211C15.9033 15.3428 16.3428 14.9297 16.3428 14.1123V5.82422C16.3428 5.01562 15.9033 4.59375 15.1211 4.59375H2.86914C2.08691 4.59375 1.65625 5.01562 1.65625 5.82422V14.1123C1.65625 14.9297 2.08691 15.3428 2.86914 15.3428ZM7.29004 7.74902C6.98242 7.74902 6.87695 7.66113 6.87695 7.35352V6.83496C6.87695 6.52734 6.98242 6.43066 7.29004 6.43066H7.80859C8.11621 6.43066 8.21289 6.52734 8.21289 6.83496V7.35352C8.21289 7.66113 8.11621 7.74902 7.80859 7.74902H7.29004ZM10.208 7.74902C9.90039 7.74902 9.79492 7.66113 9.79492 7.35352V6.83496C9.79492 6.52734 9.90039 6.43066 10.208 6.43066H10.7266C11.0342 6.43066 11.1396 6.52734 11.1396 6.83496V7.35352C11.1396 7.66113 11.0342 7.74902 10.7266 7.74902H10.208ZM13.126 7.74902C12.8184 7.74902 12.7217 7.66113 12.7217 7.35352V6.83496C12.7217 6.52734 12.8184 6.43066 13.126 6.43066H13.6445C13.9521 6.43066 14.0576 6.52734 14.0576 6.83496V7.35352C14.0576 7.66113 13.9521 7.74902 13.6445 7.74902H13.126ZM4.37207 10.623C4.05566 10.623 3.95898 10.5352 3.95898 10.2275V9.70898C3.95898 9.40137 4.05566 9.31348 4.37207 9.31348H4.88184C5.19824 9.31348 5.29492 9.40137 5.29492 9.70898V10.2275C5.29492 10.5352 5.19824 10.623 4.88184 10.623H4.37207ZM7.29004 10.623C6.98242 10.623 6.87695 10.5352 6.87695 10.2275V9.70898C6.87695 9.40137 6.98242 9.31348 7.29004 9.31348H7.80859C8.11621 9.31348 8.21289 9.40137 8.21289 9.70898V10.2275C8.21289 10.5352 8.11621 10.623 7.80859 10.623H7.29004ZM10.208 10.623C9.90039 10.623 9.79492 10.5352 9.79492 10.2275V9.70898C9.79492 9.40137 9.90039 9.31348 10.208 9.31348H10.7266C11.0342 9.31348 11.1396 9.40137 11.1396 9.70898V10.2275C11.1396 10.5352 11.0342 10.623 10.7266 10.623H10.208ZM13.126 10.623C12.8184 10.623 12.7217 10.5352 12.7217 10.2275V9.70898C12.7217 9.40137 12.8184 9.31348 13.126 9.31348H13.6445C13.9521 9.31348 14.0576 9.40137 14.0576 9.70898V10.2275C14.0576 10.5352 13.9521 10.623 13.6445 10.623H13.126ZM4.37207 13.5059C4.05566 13.5059 3.95898 13.4092 3.95898 13.1016V12.583C3.95898 12.2754 4.05566 12.1875 4.37207 12.1875H4.88184C5.19824 12.1875 5.29492 12.2754 5.29492 12.583V13.1016C5.29492 13.4092 5.19824 13.5059 4.88184 13.5059H4.37207ZM7.29004 13.5059C6.98242 13.5059 6.87695 13.4092 6.87695 13.1016V12.583C6.87695 12.2754 6.98242 12.1875 7.29004 12.1875H7.80859C8.11621 12.1875 8.21289 12.2754 8.21289 12.583V13.1016C8.21289 13.4092 8.11621 13.5059 7.80859 13.5059H7.29004ZM10.208 13.5059C9.90039 13.5059 9.79492 13.4092 9.79492 13.1016V12.583C9.79492 12.2754 9.90039 12.1875 10.208 12.1875H10.7266C11.0342 12.1875 11.1396 12.2754 11.1396 12.583V13.1016C11.1396 13.4092 11.0342 13.5059 10.7266 13.5059H10.208Z" fill="#717171"/>
</svg>
