<svg width="52" height="12" viewBox="0 0 52 12" fill="none" xmlns="http://www.w3.org/2000/svg">
<path d="M1.37891 11.7998C1.15104 11.7998 0.971029 11.7201 0.838867 11.5605C0.711263 11.401 0.647461 11.1891 0.647461 10.9248V1.75781C0.647461 1.49349 0.711263 1.28158 0.838867 1.12207C0.971029 0.962565 1.15104 0.882812 1.37891 0.882812C1.4974 0.882812 1.61133 0.905599 1.7207 0.951172C1.83008 0.992188 1.94629 1.04915 2.06934 1.12207L9.6709 5.53125C9.92611 5.67708 10.1016 5.80924 10.1973 5.92773C10.2975 6.04167 10.3477 6.17839 10.3477 6.33789C10.3477 6.50195 10.2975 6.64323 10.1973 6.76172C10.1016 6.87565 9.92611 7.00326 9.6709 7.14453L2.06934 11.5605C1.94629 11.6335 1.83008 11.6904 1.7207 11.7314C1.61133 11.777 1.4974 11.7998 1.37891 11.7998ZM19.583 6.13281V6.5293C19.583 7.18555 19.6514 7.74837 19.7881 8.21777C19.9294 8.68717 20.1276 9.0472 20.3828 9.29785C20.638 9.5485 20.9411 9.67383 21.292 9.67383C21.6475 9.67383 21.9505 9.5485 22.2012 9.29785C22.4564 9.04264 22.6523 8.68262 22.7891 8.21777C22.9258 7.74837 22.9941 7.18555 22.9941 6.5293V6.13281C22.9941 5.48112 22.9258 4.92057 22.7891 4.45117C22.6523 3.98177 22.4564 3.62402 22.2012 3.37793C21.9505 3.12728 21.6475 3.00195 21.292 3.00195C20.9411 3.00195 20.638 3.12728 20.3828 3.37793C20.1276 3.62402 19.9294 3.98177 19.7881 4.45117C19.6514 4.91602 19.583 5.47656 19.583 6.13281ZM17.7441 6.54297V6.12598C17.7441 5.19173 17.8854 4.37826 18.168 3.68555C18.4551 2.99284 18.8652 2.45508 19.3984 2.07227C19.9316 1.6849 20.5697 1.49121 21.3125 1.49121C22.0553 1.49121 22.6888 1.68262 23.2129 2.06543C23.7415 2.44368 24.1449 2.97917 24.4229 3.67188C24.7008 4.36458 24.8398 5.18262 24.8398 6.12598V6.54297C24.8398 7.24023 24.7578 7.8737 24.5938 8.44336C24.4342 9.01302 24.1995 9.50293 23.8896 9.91309C23.5798 10.3187 23.2061 10.6309 22.7686 10.8496C22.3311 11.0684 21.8343 11.1777 21.2783 11.1777C20.54 11.1777 19.9066 10.9886 19.3779 10.6104C18.8493 10.2275 18.4437 9.68978 18.1611 8.99707C17.8831 8.2998 17.7441 7.48177 17.7441 6.54297ZM30.6572 11H28.8252V3.44629H28.7363C28.5039 3.61035 28.2692 3.77669 28.0322 3.94531C27.7952 4.11393 27.5583 4.28255 27.3213 4.45117C27.0889 4.61523 26.8542 4.78158 26.6172 4.9502V3.25488C26.9863 2.99056 27.3555 2.72624 27.7246 2.46191C28.0938 2.19759 28.4606 1.93327 28.8252 1.66895H30.6572V11ZM32.8174 8.7373C32.8174 8.38184 32.9313 8.09928 33.1592 7.88965C33.3916 7.67546 33.6742 7.56836 34.0068 7.56836C34.3441 7.56836 34.6289 7.67546 34.8613 7.88965C35.0983 8.10384 35.2168 8.38639 35.2168 8.7373C35.2168 9.08366 35.0983 9.36165 34.8613 9.57129C34.6289 9.78092 34.3441 9.88574 34.0068 9.88574C33.6787 9.88574 33.3984 9.78092 33.166 9.57129C32.9336 9.36165 32.8174 9.08366 32.8174 8.7373ZM32.8174 4.15039C32.8174 3.79036 32.9313 3.50553 33.1592 3.2959C33.3916 3.08171 33.6742 2.97461 34.0068 2.97461C34.3441 2.97461 34.6289 3.08398 34.8613 3.30273C35.0983 3.51693 35.2168 3.79948 35.2168 4.15039C35.2168 4.49674 35.0983 4.77474 34.8613 4.98438C34.6289 5.19401 34.3441 5.29883 34.0068 5.29883C33.6787 5.29883 33.3984 5.19401 33.166 4.98438C32.9336 4.77474 32.8174 4.49674 32.8174 4.15039ZM38.8125 4.45117H37.0625V4.3623C37.0625 4.00228 37.1263 3.65365 37.2539 3.31641C37.3861 2.97461 37.5843 2.66699 37.8486 2.39355C38.113 2.12012 38.4434 1.90137 38.8398 1.7373C39.2409 1.57324 39.7126 1.49121 40.2549 1.49121C40.8975 1.49121 41.458 1.60514 41.9365 1.83301C42.415 2.06087 42.7842 2.37305 43.0439 2.76953C43.3083 3.16146 43.4404 3.60579 43.4404 4.10254C43.4404 4.53092 43.3584 4.91374 43.1943 5.25098C43.0348 5.58366 42.8298 5.89583 42.5791 6.1875C42.333 6.47461 42.0732 6.76855 41.7998 7.06934L39.6807 9.40723V9.49609H43.5977V11H37.1514V9.85156L40.5625 6.17383C40.7311 5.99609 40.8952 5.81152 41.0547 5.62012C41.2142 5.42415 41.3464 5.21452 41.4512 4.99121C41.556 4.7679 41.6084 4.52865 41.6084 4.27344C41.6084 4.01823 41.5469 3.79264 41.4238 3.59668C41.3053 3.40072 41.1413 3.24805 40.9316 3.13867C40.722 3.02474 40.4827 2.96777 40.2139 2.96777C39.9222 2.96777 39.6715 3.03158 39.4619 3.15918C39.2523 3.28678 39.0905 3.45768 38.9766 3.67188C38.8672 3.88151 38.8125 4.1071 38.8125 4.34863C38.8125 4.36686 38.8125 4.38737 38.8125 4.41016C38.8125 4.42839 38.8125 4.44206 38.8125 4.45117ZM47.3916 6.90527V5.4834H48.376C48.6585 5.4834 48.9092 5.42643 49.1279 5.3125C49.3467 5.19857 49.5176 5.04362 49.6406 4.84766C49.7637 4.65169 49.8229 4.43066 49.8184 4.18457C49.8184 3.80632 49.6816 3.50098 49.4082 3.26855C49.1393 3.03613 48.7952 2.91992 48.376 2.91992C48.1618 2.91992 47.9658 2.95182 47.7881 3.01562C47.6149 3.07943 47.4645 3.16602 47.3369 3.27539C47.2093 3.38477 47.109 3.51009 47.0361 3.65137C46.9678 3.79264 46.929 3.93848 46.9199 4.08887H45.2041C45.2178 3.72428 45.2975 3.38477 45.4434 3.07031C45.5892 2.75586 45.7988 2.48242 46.0723 2.25C46.3457 2.01302 46.6784 1.82845 47.0703 1.69629C47.4668 1.56413 47.9202 1.49577 48.4307 1.49121C49.0824 1.48665 49.6452 1.58919 50.1191 1.79883C50.5931 2.00846 50.96 2.29785 51.2197 2.66699C51.484 3.03158 51.6185 3.45085 51.623 3.9248C51.6322 4.3623 51.5387 4.73372 51.3428 5.03906C51.1514 5.3444 50.9189 5.58366 50.6455 5.75684C50.3766 5.92546 50.1283 6.02799 49.9004 6.06445V6.16016C50.1829 6.1875 50.4769 6.2832 50.7822 6.44727C51.0921 6.61133 51.3564 6.85286 51.5752 7.17188C51.7939 7.48633 51.9056 7.89193 51.9102 8.38867C51.9147 8.83073 51.8236 9.22493 51.6367 9.57129C51.4544 9.91764 51.1992 10.2116 50.8711 10.4531C50.543 10.6901 50.1647 10.8724 49.7363 11C49.3125 11.123 48.859 11.1846 48.376 11.1846C47.6742 11.1846 47.0749 11.0661 46.5781 10.8291C46.0859 10.5876 45.7077 10.2686 45.4434 9.87207C45.1836 9.47103 45.0446 9.03353 45.0264 8.55957H46.7217C46.7399 8.78288 46.8219 8.9834 46.9678 9.16113C47.1136 9.33431 47.3073 9.47331 47.5488 9.57812C47.7949 9.67839 48.0729 9.73079 48.3828 9.73535C48.7246 9.73535 49.0231 9.67611 49.2783 9.55762C49.5335 9.43457 49.7295 9.26595 49.8662 9.05176C50.0075 8.83301 50.0758 8.58464 50.0713 8.30664C50.0713 8.0332 50.0029 7.79167 49.8662 7.58203C49.7295 7.3724 49.5381 7.20833 49.292 7.08984C49.0505 6.9668 48.7611 6.90527 48.4238 6.90527H47.3916Z" fill="black"/>
</svg>
