<svg width="15" height="4" viewBox="0 0 15 4" fill="none" xmlns="http://www.w3.org/2000/svg">
<path d="M1.94531 3.28125C1.64323 3.28125 1.36979 3.20833 1.125 3.0625C0.885417 2.91667 0.690104 2.72135 0.539062 2.47656C0.393229 2.23177 0.320312 1.96094 0.320312 1.66406C0.320312 1.36198 0.393229 1.09115 0.539062 0.851562C0.690104 0.606771 0.885417 0.411458 1.125 0.265625C1.36979 0.119792 1.64323 0.046875 1.94531 0.046875C2.24219 0.046875 2.51302 0.119792 2.75781 0.265625C3.0026 0.411458 3.19792 0.606771 3.34375 0.851562C3.48958 1.09115 3.5625 1.36198 3.5625 1.66406C3.5625 1.96094 3.48958 2.23177 3.34375 2.47656C3.19792 2.72135 3.0026 2.91667 2.75781 3.0625C2.51302 3.20833 2.24219 3.28125 1.94531 3.28125ZM7.51562 3.28125C7.21354 3.28125 6.9401 3.20833 6.69531 3.0625C6.45052 2.91667 6.25521 2.72135 6.10938 2.47656C5.96354 2.23177 5.89062 1.96094 5.89062 1.66406C5.89062 1.36198 5.96354 1.09115 6.10938 0.851562C6.25521 0.606771 6.45052 0.411458 6.69531 0.265625C6.9401 0.119792 7.21354 0.046875 7.51562 0.046875C7.80729 0.046875 8.07552 0.119792 8.32031 0.265625C8.57031 0.411458 8.76823 0.606771 8.91406 0.851562C9.0599 1.09115 9.13281 1.36198 9.13281 1.66406C9.13281 1.96094 9.0599 2.23177 8.91406 2.47656C8.76823 2.72135 8.57031 2.91667 8.32031 3.0625C8.07552 3.20833 7.80729 3.28125 7.51562 3.28125ZM13.0781 3.28125C12.7812 3.28125 12.5104 3.20833 12.2656 3.0625C12.0208 2.91667 11.8255 2.72135 11.6797 2.47656C11.5339 2.23177 11.4609 1.96094 11.4609 1.66406C11.4609 1.36198 11.5339 1.09115 11.6797 0.851562C11.8255 0.606771 12.0208 0.411458 12.2656 0.265625C12.5104 0.119792 12.7812 0.046875 13.0781 0.046875C13.375 0.046875 13.6458 0.119792 13.8906 0.265625C14.1354 0.411458 14.3307 0.606771 14.4766 0.851562C14.6276 1.09115 14.7031 1.36198 14.7031 1.66406C14.7031 1.96094 14.6276 2.23177 14.4766 2.47656C14.3307 2.72135 14.1354 2.91667 13.8906 3.0625C13.6458 3.20833 13.375 3.28125 13.0781 3.28125Z" fill="#0D0D0D"/>
</svg>
